# xmcd CD database file
#
# Track frame offsets:
#	150
#	14592
#	28727
#	48487
#	67477
#	85477
#	101020
#	121052
#	137717
#	153952
#
# Disc length: 2365 seconds
#
# Revision: 2
# Processed by: cddbd v1.5.1PL0 Copyright (c) Steve Scherf et al.
# Submitted via: CDex 1.51
#
DISCID=8b093b0a
DTITLE=Suzy Bogguss and Chet Atkins - Simpatico
DYEAR=1994
DGENRE=Country
TTITLE0=In The Jaihouse Now
TTITLE1=When She Smiled At Him
TTITLE2=Forget About It
TTITLE3=Wives Don't Like Old Girlfriends
TTITLE4=Sorry Seems To Be The Hardest Word
TTITLE5=Two Shades of Blue
TTITLE6=One More For The Road
TTITLE7=I Still Miss Someone
TTITLE8=You Bring Out The Best In Me
TTITLE9=This Is The Beginning
EXTD=YEAR: 1994
EXTT0=
EXTT1=
EXTT2=
EXTT3=
EXTT4=
EXTT5=
EXTT6=
EXTT7=
EXTT8=
EXTT9=
PLAYORDER=
